<svg width="175" height="40" viewBox="0 0 175 40" fill="none" xmlns="http://www.w3.org/2000/svg">
<path d="M12.818 11.146C13.1127 12.1167 13.26 13.174 13.26 14.318C13.26 15.5487 13.0953 16.632 12.766 17.568C12.3847 18.712 11.7693 19.6047 10.92 20.246C10.0707 20.8873 9.03067 21.208 7.8 21.208C6.58667 21.208 5.59 20.7487 4.81 19.83C4.77533 19.778 4.74067 19.7607 4.706 19.778C4.67133 19.7953 4.654 19.83 4.654 19.882V20.688C4.654 20.7747 4.61933 20.8527 4.55 20.922C4.498 20.974 4.42867 21 4.342 21H1.95C1.86333 21 1.78533 20.974 1.716 20.922C1.664 20.8527 1.638 20.7747 1.638 20.688V3.112C1.638 3.02533 1.664 2.956 1.716 2.904C1.78533 2.83467 1.86333 2.8 1.95 2.8H4.342C4.42867 2.8 4.498 2.83467 4.55 2.904C4.61933 2.956 4.654 3.02533 4.654 3.112V8.754C4.654 8.806 4.67133 8.84067 4.706 8.858C4.74067 8.87533 4.77533 8.86667 4.81 8.832C5.55533 7.948 6.54333 7.506 7.774 7.506C9.05667 7.506 10.114 7.82667 10.946 8.468C11.7953 9.10933 12.4193 10.002 12.818 11.146ZM9.542 17.36C9.958 16.632 10.166 15.6353 10.166 14.37C10.166 13.018 9.906 11.9607 9.386 11.198C8.918 10.47 8.22467 10.106 7.306 10.106C6.45667 10.106 5.80667 10.4873 5.356 11.25C4.92267 11.9607 4.706 12.992 4.706 14.344C4.706 15.6787 4.90533 16.684 5.304 17.36C5.75467 18.192 6.43067 18.608 7.332 18.608C7.81733 18.608 8.25067 18.504 8.632 18.296C9.01333 18.0707 9.31667 17.7587 9.542 17.36ZM22.3234 7.558C22.8781 7.558 23.3634 7.67067 23.7794 7.896C23.9181 7.96533 23.9701 8.09533 23.9354 8.286L23.4934 10.626C23.4761 10.834 23.3548 10.8947 23.1294 10.808C22.8694 10.7213 22.5661 10.678 22.2194 10.678C21.9941 10.678 21.8208 10.6867 21.6994 10.704C20.9714 10.7387 20.3648 10.9987 19.8794 11.484C19.3941 11.952 19.1514 12.5673 19.1514 13.33V20.688C19.1514 20.7747 19.1168 20.8527 19.0474 20.922C18.9954 20.974 18.9261 21 18.8394 21H16.4474C16.3608 21 16.2828 20.974 16.2134 20.922C16.1614 20.8527 16.1354 20.7747 16.1354 20.688V8.026C16.1354 7.93933 16.1614 7.87 16.2134 7.818C16.2828 7.74867 16.3608 7.714 16.4474 7.714H18.8394C18.9261 7.714 18.9954 7.74867 19.0474 7.818C19.1168 7.87 19.1514 7.93933 19.1514 8.026V9.196C19.1514 9.26533 19.1601 9.30867 19.1774 9.326C19.2121 9.326 19.2468 9.3 19.2814 9.248C20.0094 8.12133 21.0234 7.558 22.3234 7.558ZM30.8539 7.506C31.9459 7.506 32.9079 7.69667 33.7399 8.078C34.5719 8.45933 35.2132 8.988 35.6639 9.664C36.1145 10.3227 36.3399 11.0767 36.3399 11.926V20.688C36.3399 20.7747 36.3052 20.8527 36.2359 20.922C36.1839 20.974 36.1145 21 36.0279 21H33.6359C33.5492 21 33.4712 20.974 33.4019 20.922C33.3499 20.8527 33.3239 20.7747 33.3239 20.688V19.856C33.3239 19.804 33.3065 19.778 33.2719 19.778C33.2372 19.7607 33.2025 19.7693 33.1679 19.804C32.3185 20.74 31.0879 21.208 29.4759 21.208C28.1759 21.208 27.1012 20.8787 26.2519 20.22C25.4199 19.5613 25.0039 18.582 25.0039 17.282C25.0039 15.93 25.4719 14.8813 26.4079 14.136C27.3612 13.3733 28.6959 12.992 30.4119 12.992H33.1939C33.2805 12.992 33.3239 12.9487 33.3239 12.862V12.238C33.3239 11.562 33.1245 11.042 32.7259 10.678C32.3272 10.2967 31.7292 10.106 30.9319 10.106C30.2732 10.106 29.7359 10.2273 29.3199 10.47C28.9212 10.6953 28.6699 11.016 28.5659 11.432C28.5139 11.64 28.3925 11.7267 28.2019 11.692L25.6799 11.38C25.5932 11.3627 25.5152 11.3367 25.4459 11.302C25.3939 11.25 25.3765 11.1893 25.3939 11.12C25.5325 10.0627 26.0959 9.196 27.0839 8.52C28.0892 7.844 29.3459 7.506 30.8539 7.506ZM30.2299 18.816C31.0792 18.816 31.8072 18.5907 32.4139 18.14C33.0205 17.6893 33.3239 17.1173 33.3239 16.424V15.202C33.3239 15.1153 33.2805 15.072 33.1939 15.072H31.0099C30.0912 15.072 29.3632 15.2453 28.8259 15.592C28.3059 15.9387 28.0459 16.4327 28.0459 17.074C28.0459 17.6287 28.2452 18.062 28.6439 18.374C29.0599 18.6687 29.5885 18.816 30.2299 18.816ZM38.7959 21C38.7092 21 38.6312 20.974 38.5619 20.922C38.5099 20.8527 38.4839 20.7747 38.4839 20.688V18.478C38.4839 18.322 38.5272 18.2007 38.6139 18.114L45.0099 10.6C45.0965 10.496 45.0705 10.444 44.9319 10.444H38.9259C38.8392 10.444 38.7612 10.418 38.6919 10.366C38.6399 10.2967 38.6139 10.2187 38.6139 10.132V8.026C38.6139 7.93933 38.6399 7.87 38.6919 7.818C38.7612 7.74867 38.8392 7.714 38.9259 7.714H48.3899C48.4765 7.714 48.5459 7.74867 48.5979 7.818C48.6672 7.87 48.7019 7.93933 48.7019 8.026V10.236C48.7019 10.3747 48.6499 10.496 48.5459 10.6L42.0199 18.114C41.9505 18.218 41.9765 18.27 42.0979 18.27H48.4679C48.5545 18.27 48.6239 18.3047 48.6759 18.374C48.7452 18.426 48.7799 18.4953 48.7799 18.582V20.688C48.7799 20.7747 48.7452 20.8527 48.6759 20.922C48.6239 20.974 48.5545 21 48.4679 21H38.7959ZM52.9159 5.894C52.3786 5.894 51.9366 5.72067 51.5899 5.374C51.2432 5.02733 51.0699 4.58533 51.0699 4.048C51.0699 3.51067 51.2432 3.06867 51.5899 2.722C51.9366 2.37533 52.3786 2.202 52.9159 2.202C53.4532 2.202 53.8952 2.37533 54.2419 2.722C54.5886 3.06867 54.7619 3.51067 54.7619 4.048C54.7619 4.58533 54.5886 5.02733 54.2419 5.374C53.8952 5.72067 53.4532 5.894 52.9159 5.894ZM51.6679 21C51.5812 21 51.5032 20.974 51.4339 20.922C51.3819 20.8527 51.3559 20.7747 51.3559 20.688V8C51.3559 7.91333 51.3819 7.844 51.4339 7.792C51.5032 7.72267 51.5812 7.688 51.6679 7.688H54.0599C54.1466 7.688 54.2159 7.72267 54.2679 7.792C54.3372 7.844 54.3719 7.91333 54.3719 8V20.688C54.3719 20.7747 54.3372 20.8527 54.2679 20.922C54.2159 20.974 54.1466 21 54.0599 21H51.6679ZM58.1388 21C58.0522 21 57.9742 20.974 57.9048 20.922C57.8528 20.8527 57.8268 20.7747 57.8268 20.688V3.112C57.8268 3.02533 57.8528 2.956 57.9048 2.904C57.9742 2.83467 58.0522 2.8 58.1388 2.8H60.5308C60.6175 2.8 60.6868 2.83467 60.7388 2.904C60.8082 2.956 60.8428 3.02533 60.8428 3.112V20.688C60.8428 20.7747 60.8082 20.8527 60.7388 20.922C60.6868 20.974 60.6175 21 60.5308 21H58.1388ZM76.2986 9.846C76.2986 9.93267 76.264 10.0107 76.1946 10.08C76.1426 10.132 76.0733 10.158 75.9866 10.158H73.3346C73.248 10.158 73.2046 10.2013 73.2046 10.288V16.554C73.2046 17.2127 73.3433 17.6893 73.6206 17.984C73.9153 18.2787 74.3746 18.426 74.9986 18.426H75.7786C75.8653 18.426 75.9346 18.4607 75.9866 18.53C76.056 18.582 76.0906 18.6513 76.0906 18.738V20.688C76.0906 20.8787 75.9866 20.9913 75.7786 21.026L74.4266 21.052C73.0573 21.052 72.0346 20.818 71.3586 20.35C70.6826 19.882 70.336 18.998 70.3186 17.698V10.288C70.3186 10.2013 70.2753 10.158 70.1886 10.158H68.7066C68.62 10.158 68.542 10.132 68.4726 10.08C68.4206 10.0107 68.3946 9.93267 68.3946 9.846V8.026C68.3946 7.93933 68.4206 7.87 68.4726 7.818C68.542 7.74867 68.62 7.714 68.7066 7.714H70.1886C70.2753 7.714 70.3186 7.67067 70.3186 7.584V4.542C70.3186 4.45533 70.3446 4.386 70.3966 4.334C70.466 4.26467 70.544 4.23 70.6306 4.23H72.8926C72.9793 4.23 73.0486 4.26467 73.1006 4.334C73.17 4.386 73.2046 4.45533 73.2046 4.542V7.584C73.2046 7.67067 73.248 7.714 73.3346 7.714H75.9866C76.0733 7.714 76.1426 7.74867 76.1946 7.818C76.264 7.87 76.2986 7.93933 76.2986 8.026V9.846ZM85.1652 7.558C85.7199 7.558 86.2052 7.67067 86.6212 7.896C86.7599 7.96533 86.8119 8.09533 86.7772 8.286L86.3352 10.626C86.3179 10.834 86.1966 10.8947 85.9712 10.808C85.7112 10.7213 85.4079 10.678 85.0612 10.678C84.8359 10.678 84.6626 10.6867 84.5412 10.704C83.8132 10.7387 83.2066 10.9987 82.7212 11.484C82.2359 11.952 81.9932 12.5673 81.9932 13.33V20.688C81.9932 20.7747 81.9586 20.8527 81.8892 20.922C81.8372 20.974 81.7679 21 81.6812 21H79.2892C79.2026 21 79.1246 20.974 79.0552 20.922C79.0032 20.8527 78.9772 20.7747 78.9772 20.688V8.026C78.9772 7.93933 79.0032 7.87 79.0552 7.818C79.1246 7.74867 79.2026 7.714 79.2892 7.714H81.6812C81.7679 7.714 81.8372 7.74867 81.8892 7.818C81.9586 7.87 81.9932 7.93933 81.9932 8.026V9.196C81.9932 9.26533 82.0019 9.30867 82.0192 9.326C82.0539 9.326 82.0886 9.3 82.1232 9.248C82.8512 8.12133 83.8652 7.558 85.1652 7.558ZM93.6957 7.506C94.7877 7.506 95.7497 7.69667 96.5817 8.078C97.4137 8.45933 98.055 8.988 98.5057 9.664C98.9563 10.3227 99.1817 11.0767 99.1817 11.926V20.688C99.1817 20.7747 99.147 20.8527 99.0777 20.922C99.0257 20.974 98.9563 21 98.8697 21H96.4777C96.391 21 96.313 20.974 96.2437 20.922C96.1917 20.8527 96.1657 20.7747 96.1657 20.688V19.856C96.1657 19.804 96.1483 19.778 96.1137 19.778C96.079 19.7607 96.0443 19.7693 96.0097 19.804C95.1603 20.74 93.9297 21.208 92.3177 21.208C91.0177 21.208 89.943 20.8787 89.0937 20.22C88.2617 19.5613 87.8457 18.582 87.8457 17.282C87.8457 15.93 88.3137 14.8813 89.2497 14.136C90.203 13.3733 91.5377 12.992 93.2537 12.992H96.0357C96.1223 12.992 96.1657 12.9487 96.1657 12.862V12.238C96.1657 11.562 95.9663 11.042 95.5677 10.678C95.169 10.2967 94.571 10.106 93.7737 10.106C93.115 10.106 92.5777 10.2273 92.1617 10.47C91.763 10.6953 91.5117 11.016 91.4077 11.432C91.3557 11.64 91.2343 11.7267 91.0437 11.692L88.5217 11.38C88.435 11.3627 88.357 11.3367 88.2877 11.302C88.2357 11.25 88.2183 11.1893 88.2357 11.12C88.3743 10.0627 88.9377 9.196 89.9257 8.52C90.931 7.844 92.1877 7.506 93.6957 7.506ZM93.0717 18.816C93.921 18.816 94.649 18.5907 95.2557 18.14C95.8623 17.6893 96.1657 17.1173 96.1657 16.424V15.202C96.1657 15.1153 96.1223 15.072 96.0357 15.072H93.8517C92.933 15.072 92.205 15.2453 91.6677 15.592C91.1477 15.9387 90.8877 16.4327 90.8877 17.074C90.8877 17.6287 91.087 18.062 91.4857 18.374C91.9017 18.6687 92.4303 18.816 93.0717 18.816ZM105.518 21C105.345 21 105.232 20.9133 105.18 20.74L100.994 8.052C100.977 8.01733 100.968 7.974 100.968 7.922C100.968 7.766 101.064 7.688 101.254 7.688H103.906C104.097 7.688 104.218 7.77467 104.27 7.948L106.792 16.632C106.81 16.684 106.836 16.71 106.87 16.71C106.905 16.71 106.931 16.684 106.948 16.632L109.47 7.948C109.522 7.77467 109.644 7.688 109.834 7.688L112.486 7.74C112.59 7.74 112.668 7.77467 112.72 7.844C112.772 7.896 112.781 7.98267 112.746 8.104L108.586 20.74C108.534 20.9133 108.422 21 108.248 21H105.518ZM125.527 12.862C125.596 13.2953 125.631 13.7807 125.631 14.318L125.605 15.124C125.605 15.332 125.501 15.436 125.293 15.436H117.155C117.068 15.436 117.025 15.4793 117.025 15.566C117.077 16.138 117.155 16.528 117.259 16.736C117.675 17.984 118.689 18.6167 120.301 18.634C121.48 18.634 122.416 18.1487 123.109 17.178C123.178 17.074 123.265 17.022 123.369 17.022C123.438 17.022 123.499 17.048 123.551 17.1L125.163 18.426C125.319 18.5473 125.345 18.686 125.241 18.842C124.704 19.6047 123.984 20.194 123.083 20.61C122.199 21.026 121.211 21.234 120.119 21.234C118.767 21.234 117.614 20.9307 116.661 20.324C115.725 19.7173 115.04 18.868 114.607 17.776C114.208 16.84 114.009 15.54 114.009 13.876C114.009 12.8707 114.113 12.056 114.321 11.432C114.668 10.2187 115.318 9.26533 116.271 8.572C117.242 7.86133 118.403 7.506 119.755 7.506C123.17 7.506 125.094 9.29133 125.527 12.862ZM119.755 10.106C119.114 10.106 118.576 10.2707 118.143 10.6C117.727 10.912 117.432 11.354 117.259 11.926C117.155 12.2207 117.086 12.602 117.051 13.07C117.016 13.1567 117.051 13.2 117.155 13.2H122.433C122.52 13.2 122.563 13.1567 122.563 13.07C122.528 12.6367 122.476 12.3073 122.407 12.082C122.251 11.458 121.939 10.9727 121.471 10.626C121.02 10.2793 120.448 10.106 119.755 10.106ZM128.699 21C128.613 21 128.535 20.974 128.465 20.922C128.413 20.8527 128.387 20.7747 128.387 20.688V3.112C128.387 3.02533 128.413 2.956 128.465 2.904C128.535 2.83467 128.613 2.8 128.699 2.8H131.091C131.178 2.8 131.247 2.83467 131.299 2.904C131.369 2.956 131.403 3.02533 131.403 3.112V20.688C131.403 20.7747 131.369 20.8527 131.299 20.922C131.247 20.974 131.178 21 131.091 21H128.699Z" fill="#123952"/>
<g clip-path="url(#clip0)">
<path d="M158.47 33.2018L160.288 32.3679L161.497 23.0118L166.497 20.7187C167.251 20.3727 167.581 19.4844 167.235 18.7299C166.889 17.9755 166 17.6459 165.246 17.9919L160.247 20.285L152.367 15.098L150.549 15.9318L156.156 22.1611L151.157 24.4542L148.96 23.2616L147.596 23.887L149.965 26.6514L150.515 30.2496L151.878 29.6242L152.408 27.181L157.407 24.8879L158.47 33.2018Z" fill="#FF5555"/>
</g>
<path d="M59 28C102.5 36 126.5 34.5 147 28" stroke="#FF5555" stroke-width="3"/>
<defs>
<clipPath id="clip0">
<rect width="24" height="24" fill="white" transform="translate(164.258 7.44324) rotate(65.3597)"/>
</clipPath>
</defs>
</svg>
