<svg width="541" height="224" viewBox="0 0 541 224" fill="none" xmlns="http://www.w3.org/2000/svg">
<g clip-path="url(#clip0)">
<path d="M421.545 184.321L435.601 179.814L452.711 112.325L491.362 99.931C497.195 98.0605 500.394 91.8422 498.524 86.0093C496.653 80.1763 490.435 76.9777 484.602 78.8481L445.95 91.2424L392.784 46.2891L378.729 50.7961L414.326 101.383L375.674 113.778L360.626 103.103L350.084 106.483L364.999 128.826L365.859 155.676L376.4 152.296L382.434 134.86L421.086 122.466L421.545 184.321Z" fill="#FF5555"/>
</g>
<path d="M3 132C157 31 260.5 229 358 132" stroke="#FF5555" stroke-width="10" stroke-dasharray="20 20"/>
<defs>
<clipPath id="clip0">
<rect width="177.122" height="177.122" fill="white" transform="translate(486.663 0.684509) rotate(72.2207)"/>
</clipPath>
</defs>
</svg>
